 
<svg xmlns="http://www.w3.org/2000/svg" width="717" height="158"><text class="title" dx="0" dy="16">kobe-koto's GitHub Contributions Summary - last year</text>
<g transform="translate(15, 50)">
<g transform="translate(0, 0)">
<rect width="10" height="10" x="14" y="0" data-date="2022-04-03" data-level="1" rx="2" ry="2">2</rect>
<rect width="10" height="10" x="14" y="13" data-date="2022-04-04" data-level="0" rx="2" ry="2">No</rect>
<rect width="10" height="10" x="14" y="26" data-date="2022-04-05" data-level="0" rx="2" ry="2">No</rect>
<rect width="10" height="10" x="14" y="39" data-date="2022-04-06" data-level="0" rx="2" ry="2">No</rect>
<rect width="10" height="10" x="14" y="52" data-date="2022-04-07" data-level="1" rx="2" ry="2">2</rect>
<rect width="10" height="10" x="14" y="65" data-date="2022-04-08" data-level="1" rx="2" ry="2">2</rect>
<rect width="10" height="10" x="14" y="78" data-date="2022-04-09" data-level="1" rx="2" ry="2">1</rect>
</g>
<g transform="translate(14, 0)">
<rect width="10" height="10" x="13" y="0" data-date="2022-04-10" data-level="0" rx="2" ry="2">No</rect>
<rect width="10" height="10" x="13" y="13" data-date="2022-04-11" data-level="0" rx="2" ry="2">No</rect>
<rect width="10" height="10" x="13" y="26" data-date="2022-04-12" data-level="0" rx="2" ry="2">No</rect>
<rect width="10" height="10" x="13" y="39" data-date="2022-04-13" data-level="0" rx="2" ry="2">No</rect>
<rect width="10" height="10" x="13" y="52" data-date="2022-04-14" data-level="0" rx="2" ry="2">No</rect>
<rect width="10" height="10" x="13" y="65" data-date="2022-04-15" data-level="0" rx="2" ry="2">No</rect>
<rect width="10" height="10" x="13" y="78" data-date="2022-04-16" data-level="2" rx="2" ry="2">5</rect>
</g>
<g transform="translate(28, 0)">
<rect width="10" height="10" x="12" y="0" data-date="2022-04-17" data-level="1" rx="2" ry="2">1</rect>
<rect width="10" height="10" x="12" y="13" data-date="2022-04-18" data-level="0" rx="2" ry="2">No</rect>
<rect width="10" height="10" x="12" y="26" data-date="2022-04-19" data-level="0" rx="2" ry="2">No</rect>
<rect width="10" height="10" x="12" y="39" data-date="2022-04-20" data-level="0" rx="2" ry="2">No</rect>
<rect width="10" height="10" x="12" y="52" data-date="2022-04-21" data-level="0" rx="2" ry="2">No</rect>
<rect width="10" height="10" x="12" y="65" data-date="2022-04-22" data-level="0" rx="2" ry="2">No</rect>
<rect width="10" height="10" x="12" y="78" data-date="2022-04-23" data-level="4" rx="2" ry="2">13</rect>
</g>
<g transform="translate(42, 0)">
<rect width="10" height="10" x="11" y="0" data-date="2022-04-24" data-level="0" rx="2" ry="2">No</rect>
<rect width="10" height="10" x="11" y="13" data-date="2022-04-25" data-level="0" rx="2" ry="2">No</rect>
<rect width="10" height="10" x="11" y="26" data-date="2022-04-26" data-level="0" rx="2" ry="2">No</rect>
<rect width="10" height="10" x="11" y="39" data-date="2022-04-27" data-level="0" rx="2" ry="2">No</rect>
<rect width="10" height="10" x="11" y="52" data-date="2022-04-28" data-level="0" rx="2" ry="2">No</rect>
<rect width="10" height="10" x="11" y="65" data-date="2022-04-29" data-level="0" rx="2" ry="2">No</rect>
<rect width="10" height="10" x="11" y="78" data-date="2022-04-30" data-level="1" rx="2" ry="2">2</rect>
</g>
<g transform="translate(56, 0)">
<rect width="10" height="10" x="10" y="0" data-date="2022-05-01" data-level="0" rx="2" ry="2">No</rect>
<rect width="10" height="10" x="10" y="13" data-date="2022-05-02" data-level="1" rx="2" ry="2">3</rect>
<rect width="10" height="10" x="10" y="26" data-date="2022-05-03" data-level="0" rx="2" ry="2">No</rect>
<rect width="10" height="10" x="10" y="39" data-date="2022-05-04" data-level="1" rx="2" ry="2">2</rect>
<rect width="10" height="10" x="10" y="52" data-date="2022-05-05" data-level="0" rx="2" ry="2">No</rect>
<rect width="10" height="10" x="10" y="65" data-date="2022-05-06" data-level="0" rx="2" ry="2">No</rect>
<rect width="10" height="10" x="10" y="78" data-date="2022-05-07" data-level="1" rx="2" ry="2">1</rect>
</g>
<g transform="translate(70, 0)">
<rect width="10" height="10" x="9" y="0" data-date="2022-05-08" data-level="2" rx="2" ry="2">4</rect>
<rect width="10" height="10" x="9" y="13" data-date="2022-05-09" data-level="0" rx="2" ry="2">No</rect>
<rect width="10" height="10" x="9" y="26" data-date="2022-05-10" data-level="0" rx="2" ry="2">No</rect>
<rect width="10" height="10" x="9" y="39" data-date="2022-05-11" data-level="0" rx="2" ry="2">No</rect>
<rect width="10" height="10" x="9" y="52" data-date="2022-05-12" data-level="0" rx="2" ry="2">No</rect>
<rect width="10" height="10" x="9" y="65" data-date="2022-05-13" data-level="4" rx="2" ry="2">15</rect>
<rect width="10" height="10" x="9" y="78" data-date="2022-05-14" data-level="1" rx="2" ry="2">3</rect>
</g>
<g transform="translate(84, 0)">
<rect width="10" height="10" x="8" y="0" data-date="2022-05-15" data-level="1" rx="2" ry="2">2</rect>
<rect width="10" height="10" x="8" y="13" data-date="2022-05-16" data-level="0" rx="2" ry="2">No</rect>
<rect width="10" height="10" x="8" y="26" data-date="2022-05-17" data-level="0" rx="2" ry="2">No</rect>
<rect width="10" height="10" x="8" y="39" data-date="2022-05-18" data-level="0" rx="2" ry="2">No</rect>
<rect width="10" height="10" x="8" y="52" data-date="2022-05-19" data-level="0" rx="2" ry="2">No</rect>
<rect width="10" height="10" x="8" y="65" data-date="2022-05-20" data-level="0" rx="2" ry="2">No</rect>
<rect width="10" height="10" x="8" y="78" data-date="2022-05-21" data-level="1" rx="2" ry="2">2</rect>
</g>
<g transform="translate(98, 0)">
<rect width="10" height="10" x="7" y="0" data-date="2022-05-22" data-level="0" rx="2" ry="2">No</rect>
<rect width="10" height="10" x="7" y="13" data-date="2022-05-23" data-level="0" rx="2" ry="2">No</rect>
<rect width="10" height="10" x="7" y="26" data-date="2022-05-24" data-level="0" rx="2" ry="2">No</rect>
<rect width="10" height="10" x="7" y="39" data-date="2022-05-25" data-level="0" rx="2" ry="2">No</rect>
<rect width="10" height="10" x="7" y="52" data-date="2022-05-26" data-level="0" rx="2" ry="2">No</rect>
<rect width="10" height="10" x="7" y="65" data-date="2022-05-27" data-level="2" rx="2" ry="2">4</rect>
<rect width="10" height="10" x="7" y="78" data-date="2022-05-28" data-level="4" rx="2" ry="2">13</rect>
</g>
<g transform="translate(112, 0)">
<rect width="10" height="10" x="6" y="0" data-date="2022-05-29" data-level="0" rx="2" ry="2">No</rect>
<rect width="10" height="10" x="6" y="13" data-date="2022-05-30" data-level="0" rx="2" ry="2">No</rect>
<rect width="10" height="10" x="6" y="26" data-date="2022-05-31" data-level="0" rx="2" ry="2">No</rect>
<rect width="10" height="10" x="6" y="39" data-date="2022-06-01" data-level="2" rx="2" ry="2">5</rect>
<rect width="10" height="10" x="6" y="52" data-date="2022-06-02" data-level="1" rx="2" ry="2">1</rect>
<rect width="10" height="10" x="6" y="65" data-date="2022-06-03" data-level="0" rx="2" ry="2">No</rect>
<rect width="10" height="10" x="6" y="78" data-date="2022-06-04" data-level="1" rx="2" ry="2">3</rect>
</g>
<g transform="translate(126, 0)">
<rect width="10" height="10" x="5" y="0" data-date="2022-06-05" data-level="2" rx="2" ry="2">4</rect>
<rect width="10" height="10" x="5" y="13" data-date="2022-06-06" data-level="0" rx="2" ry="2">No</rect>
<rect width="10" height="10" x="5" y="26" data-date="2022-06-07" data-level="0" rx="2" ry="2">No</rect>
<rect width="10" height="10" x="5" y="39" data-date="2022-06-08" data-level="0" rx="2" ry="2">No</rect>
<rect width="10" height="10" x="5" y="52" data-date="2022-06-09" data-level="0" rx="2" ry="2">No</rect>
<rect width="10" height="10" x="5" y="65" data-date="2022-06-10" data-level="1" rx="2" ry="2">1</rect>
<rect width="10" height="10" x="5" y="78" data-date="2022-06-11" data-level="1" rx="2" ry="2">1</rect>
</g>
<g transform="translate(140, 0)">
<rect width="10" height="10" x="4" y="0" data-date="2022-06-12" data-level="1" rx="2" ry="2">2</rect>
<rect width="10" height="10" x="4" y="13" data-date="2022-06-13" data-level="0" rx="2" ry="2">No</rect>
<rect width="10" height="10" x="4" y="26" data-date="2022-06-14" data-level="0" rx="2" ry="2">No</rect>
<rect width="10" height="10" x="4" y="39" data-date="2022-06-15" data-level="0" rx="2" ry="2">No</rect>
<rect width="10" height="10" x="4" y="52" data-date="2022-06-16" data-level="0" rx="2" ry="2">No</rect>
<rect width="10" height="10" x="4" y="65" data-date="2022-06-17" data-level="0" rx="2" ry="2">No</rect>
<rect width="10" height="10" x="4" y="78" data-date="2022-06-18" data-level="1" rx="2" ry="2">2</rect>
</g>
<g transform="translate(154, 0)">
<rect width="10" height="10" x="3" y="0" data-date="2022-06-19" data-level="1" rx="2" ry="2">1</rect>
<rect width="10" height="10" x="3" y="13" data-date="2022-06-20" data-level="0" rx="2" ry="2">No</rect>
<rect width="10" height="10" x="3" y="26" data-date="2022-06-21" data-level="0" rx="2" ry="2">No</rect>
<rect width="10" height="10" x="3" y="39" data-date="2022-06-22" data-level="0" rx="2" ry="2">No</rect>
<rect width="10" height="10" x="3" y="52" data-date="2022-06-23" data-level="0" rx="2" ry="2">No</rect>
<rect width="10" height="10" x="3" y="65" data-date="2022-06-24" data-level="0" rx="2" ry="2">No</rect>
<rect width="10" height="10" x="3" y="78" data-date="2022-06-25" data-level="0" rx="2" ry="2">No</rect>
</g>
<g transform="translate(168, 0)">
<rect width="10" height="10" x="2" y="0" data-date="2022-06-26" data-level="1" rx="2" ry="2">1</rect>
<rect width="10" height="10" x="2" y="13" data-date="2022-06-27" data-level="1" rx="2" ry="2">1</rect>
<rect width="10" height="10" x="2" y="26" data-date="2022-06-28" data-level="1" rx="2" ry="2">1</rect>
<rect width="10" height="10" x="2" y="39" data-date="2022-06-29" data-level="0" rx="2" ry="2">No</rect>
<rect width="10" height="10" x="2" y="52" data-date="2022-06-30" data-level="0" rx="2" ry="2">No</rect>
<rect width="10" height="10" x="2" y="65" data-date="2022-07-01" data-level="1" rx="2" ry="2">1</rect>
<rect width="10" height="10" x="2" y="78" data-date="2022-07-02" data-level="0" rx="2" ry="2">No</rect>
</g>
<g transform="translate(182, 0)">
<rect width="10" height="10" x="1" y="0" data-date="2022-07-03" data-level="0" rx="2" ry="2">No</rect>
<rect width="10" height="10" x="1" y="13" data-date="2022-07-04" data-level="0" rx="2" ry="2">No</rect>
<rect width="10" height="10" x="1" y="26" data-date="2022-07-05" data-level="1" rx="2" ry="2">3</rect>
<rect width="10" height="10" x="1" y="39" data-date="2022-07-06" data-level="0" rx="2" ry="2">No</rect>
<rect width="10" height="10" x="1" y="52" data-date="2022-07-07" data-level="3" rx="2" ry="2">9</rect>
<rect width="10" height="10" x="1" y="65" data-date="2022-07-08" data-level="1" rx="2" ry="2">1</rect>
<rect width="10" height="10" x="1" y="78" data-date="2022-07-09" data-level="0" rx="2" ry="2">No</rect>
</g>
<g transform="translate(196, 0)">
<rect width="10" height="10" x="0" y="0" data-date="2022-07-10" data-level="1" rx="2" ry="2">2</rect>
<rect width="10" height="10" x="0" y="13" data-date="2022-07-11" data-level="2" rx="2" ry="2">4</rect>
<rect width="10" height="10" x="0" y="26" data-date="2022-07-12" data-level="0" rx="2" ry="2">No</rect>
<rect width="10" height="10" x="0" y="39" data-date="2022-07-13" data-level="2" rx="2" ry="2">5</rect>
<rect width="10" height="10" x="0" y="52" data-date="2022-07-14" data-level="0" rx="2" ry="2">No</rect>
<rect width="10" height="10" x="0" y="65" data-date="2022-07-15" data-level="4" rx="2" ry="2">10</rect>
<rect width="10" height="10" x="0" y="78" data-date="2022-07-16" data-level="4" rx="2" ry="2">13</rect>
</g>
<g transform="translate(210, 0)">
<rect width="10" height="10" x="-1" y="0" data-date="2022-07-17" data-level="2" rx="2" ry="2">6</rect>
<rect width="10" height="10" x="-1" y="13" data-date="2022-07-18" data-level="2" rx="2" ry="2">6</rect>
<rect width="10" height="10" x="-1" y="26" data-date="2022-07-19" data-level="0" rx="2" ry="2">No</rect>
<rect width="10" height="10" x="-1" y="39" data-date="2022-07-20" data-level="0" rx="2" ry="2">No</rect>
<rect width="10" height="10" x="-1" y="52" data-date="2022-07-21" data-level="0" rx="2" ry="2">No</rect>
<rect width="10" height="10" x="-1" y="65" data-date="2022-07-22" data-level="0" rx="2" ry="2">No</rect>
<rect width="10" height="10" x="-1" y="78" data-date="2022-07-23" data-level="0" rx="2" ry="2">No</rect>
</g>
<g transform="translate(224, 0)">
<rect width="10" height="10" x="-2" y="0" data-date="2022-07-24" data-level="0" rx="2" ry="2">No</rect>
<rect width="10" height="10" x="-2" y="13" data-date="2022-07-25" data-level="2" rx="2" ry="2">4</rect>
<rect width="10" height="10" x="-2" y="26" data-date="2022-07-26" data-level="0" rx="2" ry="2">No</rect>
<rect width="10" height="10" x="-2" y="39" data-date="2022-07-27" data-level="0" rx="2" ry="2">No</rect>
<rect width="10" height="10" x="-2" y="52" data-date="2022-07-28" data-level="1" rx="2" ry="2">2</rect>
<rect width="10" height="10" x="-2" y="65" data-date="2022-07-29" data-level="0" rx="2" ry="2">No</rect>
<rect width="10" height="10" x="-2" y="78" data-date="2022-07-30" data-level="0" rx="2" ry="2">No</rect>
</g>
<g transform="translate(238, 0)">
<rect width="10" height="10" x="-3" y="0" data-date="2022-07-31" data-level="2" rx="2" ry="2">5</rect>
<rect width="10" height="10" x="-3" y="13" data-date="2022-08-01" data-level="0" rx="2" ry="2">No</rect>
<rect width="10" height="10" x="-3" y="26" data-date="2022-08-02" data-level="3" rx="2" ry="2">7</rect>
<rect width="10" height="10" x="-3" y="39" data-date="2022-08-03" data-level="2" rx="2" ry="2">4</rect>
<rect width="10" height="10" x="-3" y="52" data-date="2022-08-04" data-level="0" rx="2" ry="2">No</rect>
<rect width="10" height="10" x="-3" y="65" data-date="2022-08-05" data-level="1" rx="2" ry="2">1</rect>
<rect width="10" height="10" x="-3" y="78" data-date="2022-08-06" data-level="2" rx="2" ry="2">5</rect>
</g>
<g transform="translate(252, 0)">
<rect width="10" height="10" x="-4" y="0" data-date="2022-08-07" data-level="1" rx="2" ry="2">1</rect>
<rect width="10" height="10" x="-4" y="13" data-date="2022-08-08" data-level="1" rx="2" ry="2">3</rect>
<rect width="10" height="10" x="-4" y="26" data-date="2022-08-09" data-level="1" rx="2" ry="2">2</rect>
<rect width="10" height="10" x="-4" y="39" data-date="2022-08-10" data-level="2" rx="2" ry="2">5</rect>
<rect width="10" height="10" x="-4" y="52" data-date="2022-08-11" data-level="3" rx="2" ry="2">9</rect>
<rect width="10" height="10" x="-4" y="65" data-date="2022-08-12" data-level="0" rx="2" ry="2">No</rect>
<rect width="10" height="10" x="-4" y="78" data-date="2022-08-13" data-level="1" rx="2" ry="2">1</rect>
</g>
<g transform="translate(266, 0)">
<rect width="10" height="10" x="-5" y="0" data-date="2022-08-14" data-level="1" rx="2" ry="2">1</rect>
<rect width="10" height="10" x="-5" y="13" data-date="2022-08-15" data-level="1" rx="2" ry="2">1</rect>
<rect width="10" height="10" x="-5" y="26" data-date="2022-08-16" data-level="0" rx="2" ry="2">No</rect>
<rect width="10" height="10" x="-5" y="39" data-date="2022-08-17" data-level="1" rx="2" ry="2">2</rect>
<rect width="10" height="10" x="-5" y="52" data-date="2022-08-18" data-level="1" rx="2" ry="2">2</rect>
<rect width="10" height="10" x="-5" y="65" data-date="2022-08-19" data-level="0" rx="2" ry="2">No</rect>
<rect width="10" height="10" x="-5" y="78" data-date="2022-08-20" data-level="1" rx="2" ry="2">2</rect>
</g>
<g transform="translate(280, 0)">
<rect width="10" height="10" x="-6" y="0" data-date="2022-08-21" data-level="2" rx="2" ry="2">4</rect>
<rect width="10" height="10" x="-6" y="13" data-date="2022-08-22" data-level="1" rx="2" ry="2">2</rect>
<rect width="10" height="10" x="-6" y="26" data-date="2022-08-23" data-level="2" rx="2" ry="2">4</rect>
<rect width="10" height="10" x="-6" y="39" data-date="2022-08-24" data-level="0" rx="2" ry="2">No</rect>
<rect width="10" height="10" x="-6" y="52" data-date="2022-08-25" data-level="0" rx="2" ry="2">No</rect>
<rect width="10" height="10" x="-6" y="65" data-date="2022-08-26" data-level="1" rx="2" ry="2">1</rect>
<rect width="10" height="10" x="-6" y="78" data-date="2022-08-27" data-level="1" rx="2" ry="2">2</rect>
</g>
<g transform="translate(294, 0)">
<rect width="10" height="10" x="-7" y="0" data-date="2022-08-28" data-level="1" rx="2" ry="2">1</rect>
<rect width="10" height="10" x="-7" y="13" data-date="2022-08-29" data-level="0" rx="2" ry="2">No</rect>
<rect width="10" height="10" x="-7" y="26" data-date="2022-08-30" data-level="3" rx="2" ry="2">7</rect>
<rect width="10" height="10" x="-7" y="39" data-date="2022-08-31" data-level="1" rx="2" ry="2">1</rect>
<rect width="10" height="10" x="-7" y="52" data-date="2022-09-01" data-level="2" rx="2" ry="2">5</rect>
<rect width="10" height="10" x="-7" y="65" data-date="2022-09-02" data-level="4" rx="2" ry="2">10</rect>
<rect width="10" height="10" x="-7" y="78" data-date="2022-09-03" data-level="1" rx="2" ry="2">2</rect>
</g>
<g transform="translate(308, 0)">
<rect width="10" height="10" x="-8" y="0" data-date="2022-09-04" data-level="1" rx="2" ry="2">1</rect>
<rect width="10" height="10" x="-8" y="13" data-date="2022-09-05" data-level="0" rx="2" ry="2">No</rect>
<rect width="10" height="10" x="-8" y="26" data-date="2022-09-06" data-level="0" rx="2" ry="2">No</rect>
<rect width="10" height="10" x="-8" y="39" data-date="2022-09-07" data-level="0" rx="2" ry="2">No</rect>
<rect width="10" height="10" x="-8" y="52" data-date="2022-09-08" data-level="0" rx="2" ry="2">No</rect>
<rect width="10" height="10" x="-8" y="65" data-date="2022-09-09" data-level="1" rx="2" ry="2">3</rect>
<rect width="10" height="10" x="-8" y="78" data-date="2022-09-10" data-level="0" rx="2" ry="2">No</rect>
</g>
<g transform="translate(322, 0)">
<rect width="10" height="10" x="-9" y="0" data-date="2022-09-11" data-level="1" rx="2" ry="2">3</rect>
<rect width="10" height="10" x="-9" y="13" data-date="2022-09-12" data-level="1" rx="2" ry="2">1</rect>
<rect width="10" height="10" x="-9" y="26" data-date="2022-09-13" data-level="0" rx="2" ry="2">No</rect>
<rect width="10" height="10" x="-9" y="39" data-date="2022-09-14" data-level="0" rx="2" ry="2">No</rect>
<rect width="10" height="10" x="-9" y="52" data-date="2022-09-15" data-level="0" rx="2" ry="2">No</rect>
<rect width="10" height="10" x="-9" y="65" data-date="2022-09-16" data-level="1" rx="2" ry="2">1</rect>
<rect width="10" height="10" x="-9" y="78" data-date="2022-09-17" data-level="2" rx="2" ry="2">4</rect>
</g>
<g transform="translate(336, 0)">
<rect width="10" height="10" x="-10" y="0" data-date="2022-09-18" data-level="1" rx="2" ry="2">1</rect>
<rect width="10" height="10" x="-10" y="13" data-date="2022-09-19" data-level="0" rx="2" ry="2">No</rect>
<rect width="10" height="10" x="-10" y="26" data-date="2022-09-20" data-level="0" rx="2" ry="2">No</rect>
<rect width="10" height="10" x="-10" y="39" data-date="2022-09-21" data-level="0" rx="2" ry="2">No</rect>
<rect width="10" height="10" x="-10" y="52" data-date="2022-09-22" data-level="0" rx="2" ry="2">No</rect>
<rect width="10" height="10" x="-10" y="65" data-date="2022-09-23" data-level="0" rx="2" ry="2">No</rect>
<rect width="10" height="10" x="-10" y="78" data-date="2022-09-24" data-level="2" rx="2" ry="2">6</rect>
</g>
<g transform="translate(350, 0)">
<rect width="10" height="10" x="-11" y="0" data-date="2022-09-25" data-level="1" rx="2" ry="2">2</rect>
<rect width="10" height="10" x="-11" y="13" data-date="2022-09-26" data-level="0" rx="2" ry="2">No</rect>
<rect width="10" height="10" x="-11" y="26" data-date="2022-09-27" data-level="0" rx="2" ry="2">No</rect>
<rect width="10" height="10" x="-11" y="39" data-date="2022-09-28" data-level="0" rx="2" ry="2">No</rect>
<rect width="10" height="10" x="-11" y="52" data-date="2022-09-29" data-level="0" rx="2" ry="2">No</rect>
<rect width="10" height="10" x="-11" y="65" data-date="2022-09-30" data-level="0" rx="2" ry="2">No</rect>
<rect width="10" height="10" x="-11" y="78" data-date="2022-10-01" data-level="3" rx="2" ry="2">7</rect>
</g>
<g transform="translate(364, 0)">
<rect width="10" height="10" x="-12" y="0" data-date="2022-10-02" data-level="0" rx="2" ry="2">No</rect>
<rect width="10" height="10" x="-12" y="13" data-date="2022-10-03" data-level="1" rx="2" ry="2">1</rect>
<rect width="10" height="10" x="-12" y="26" data-date="2022-10-04" data-level="1" rx="2" ry="2">2</rect>
<rect width="10" height="10" x="-12" y="39" data-date="2022-10-05" data-level="1" rx="2" ry="2">1</rect>
<rect width="10" height="10" x="-12" y="52" data-date="2022-10-06" data-level="1" rx="2" ry="2">2</rect>
<rect width="10" height="10" x="-12" y="65" data-date="2022-10-07" data-level="1" rx="2" ry="2">2</rect>
<rect width="10" height="10" x="-12" y="78" data-date="2022-10-08" data-level="0" rx="2" ry="2">No</rect>
</g>
<g transform="translate(378, 0)">
<rect width="10" height="10" x="-13" y="0" data-date="2022-10-09" data-level="0" rx="2" ry="2">No</rect>
<rect width="10" height="10" x="-13" y="13" data-date="2022-10-10" data-level="0" rx="2" ry="2">No</rect>
<rect width="10" height="10" x="-13" y="26" data-date="2022-10-11" data-level="0" rx="2" ry="2">No</rect>
<rect width="10" height="10" x="-13" y="39" data-date="2022-10-12" data-level="0" rx="2" ry="2">No</rect>
<rect width="10" height="10" x="-13" y="52" data-date="2022-10-13" data-level="0" rx="2" ry="2">No</rect>
<rect width="10" height="10" x="-13" y="65" data-date="2022-10-14" data-level="1" rx="2" ry="2">1</rect>
<rect width="10" height="10" x="-13" y="78" data-date="2022-10-15" data-level="3" rx="2" ry="2">8</rect>
</g>
<g transform="translate(392, 0)">
<rect width="10" height="10" x="-14" y="0" data-date="2022-10-16" data-level="2" rx="2" ry="2">6</rect>
<rect width="10" height="10" x="-14" y="13" data-date="2022-10-17" data-level="0" rx="2" ry="2">No</rect>
<rect width="10" height="10" x="-14" y="26" data-date="2022-10-18" data-level="0" rx="2" ry="2">No</rect>
<rect width="10" height="10" x="-14" y="39" data-date="2022-10-19" data-level="0" rx="2" ry="2">No</rect>
<rect width="10" height="10" x="-14" y="52" data-date="2022-10-20" data-level="0" rx="2" ry="2">No</rect>
<rect width="10" height="10" x="-14" y="65" data-date="2022-10-21" data-level="1" rx="2" ry="2">3</rect>
<rect width="10" height="10" x="-14" y="78" data-date="2022-10-22" data-level="1" rx="2" ry="2">1</rect>
</g>
<g transform="translate(406, 0)">
<rect width="10" height="10" x="-15" y="0" data-date="2022-10-23" data-level="2" rx="2" ry="2">5</rect>
<rect width="10" height="10" x="-15" y="13" data-date="2022-10-24" data-level="0" rx="2" ry="2">No</rect>
<rect width="10" height="10" x="-15" y="26" data-date="2022-10-25" data-level="0" rx="2" ry="2">No</rect>
<rect width="10" height="10" x="-15" y="39" data-date="2022-10-26" data-level="0" rx="2" ry="2">No</rect>
<rect width="10" height="10" x="-15" y="52" data-date="2022-10-27" data-level="0" rx="2" ry="2">No</rect>
<rect width="10" height="10" x="-15" y="65" data-date="2022-10-28" data-level="1" rx="2" ry="2">2</rect>
<rect width="10" height="10" x="-15" y="78" data-date="2022-10-29" data-level="2" rx="2" ry="2">6</rect>
</g>
<g transform="translate(420, 0)">
<rect width="10" height="10" x="-16" y="0" data-date="2022-10-30" data-level="1" rx="2" ry="2">1</rect>
<rect width="10" height="10" x="-16" y="13" data-date="2022-10-31" data-level="0" rx="2" ry="2">No</rect>
<rect width="10" height="10" x="-16" y="26" data-date="2022-11-01" data-level="0" rx="2" ry="2">No</rect>
<rect width="10" height="10" x="-16" y="39" data-date="2022-11-02" data-level="0" rx="2" ry="2">No</rect>
<rect width="10" height="10" x="-16" y="52" data-date="2022-11-03" data-level="0" rx="2" ry="2">No</rect>
<rect width="10" height="10" x="-16" y="65" data-date="2022-11-04" data-level="0" rx="2" ry="2">No</rect>
<rect width="10" height="10" x="-16" y="78" data-date="2022-11-05" data-level="4" rx="2" ry="2">13</rect>
</g>
<g transform="translate(434, 0)">
<rect width="10" height="10" x="-17" y="0" data-date="2022-11-06" data-level="0" rx="2" ry="2">No</rect>
<rect width="10" height="10" x="-17" y="13" data-date="2022-11-07" data-level="0" rx="2" ry="2">No</rect>
<rect width="10" height="10" x="-17" y="26" data-date="2022-11-08" data-level="0" rx="2" ry="2">No</rect>
<rect width="10" height="10" x="-17" y="39" data-date="2022-11-09" data-level="0" rx="2" ry="2">No</rect>
<rect width="10" height="10" x="-17" y="52" data-date="2022-11-10" data-level="2" rx="2" ry="2">5</rect>
<rect width="10" height="10" x="-17" y="65" data-date="2022-11-11" data-level="1" rx="2" ry="2">3</rect>
<rect width="10" height="10" x="-17" y="78" data-date="2022-11-12" data-level="4" rx="2" ry="2">13</rect>
</g>
<g transform="translate(448, 0)">
<rect width="10" height="10" x="-18" y="0" data-date="2022-11-13" data-level="1" rx="2" ry="2">2</rect>
<rect width="10" height="10" x="-18" y="13" data-date="2022-11-14" data-level="0" rx="2" ry="2">No</rect>
<rect width="10" height="10" x="-18" y="26" data-date="2022-11-15" data-level="0" rx="2" ry="2">No</rect>
<rect width="10" height="10" x="-18" y="39" data-date="2022-11-16" data-level="0" rx="2" ry="2">No</rect>
<rect width="10" height="10" x="-18" y="52" data-date="2022-11-17" data-level="0" rx="2" ry="2">No</rect>
<rect width="10" height="10" x="-18" y="65" data-date="2022-11-18" data-level="0" rx="2" ry="2">No</rect>
<rect width="10" height="10" x="-18" y="78" data-date="2022-11-19" data-level="1" rx="2" ry="2">3</rect>
</g>
<g transform="translate(462, 0)">
<rect width="10" height="10" x="-19" y="0" data-date="2022-11-20" data-level="2" rx="2" ry="2">5</rect>
<rect width="10" height="10" x="-19" y="13" data-date="2022-11-21" data-level="2" rx="2" ry="2">5</rect>
<rect width="10" height="10" x="-19" y="26" data-date="2022-11-22" data-level="2" rx="2" ry="2">6</rect>
<rect width="10" height="10" x="-19" y="39" data-date="2022-11-23" data-level="0" rx="2" ry="2">No</rect>
<rect width="10" height="10" x="-19" y="52" data-date="2022-11-24" data-level="0" rx="2" ry="2">No</rect>
<rect width="10" height="10" x="-19" y="65" data-date="2022-11-25" data-level="1" rx="2" ry="2">1</rect>
<rect width="10" height="10" x="-19" y="78" data-date="2022-11-26" data-level="4" rx="2" ry="2">12</rect>
</g>
<g transform="translate(476, 0)">
<rect width="10" height="10" x="-20" y="0" data-date="2022-11-27" data-level="2" rx="2" ry="2">5</rect>
<rect width="10" height="10" x="-20" y="13" data-date="2022-11-28" data-level="1" rx="2" ry="2">1</rect>
<rect width="10" height="10" x="-20" y="26" data-date="2022-11-29" data-level="0" rx="2" ry="2">No</rect>
<rect width="10" height="10" x="-20" y="39" data-date="2022-11-30" data-level="0" rx="2" ry="2">No</rect>
<rect width="10" height="10" x="-20" y="52" data-date="2022-12-01" data-level="0" rx="2" ry="2">No</rect>
<rect width="10" height="10" x="-20" y="65" data-date="2022-12-02" data-level="3" rx="2" ry="2">8</rect>
<rect width="10" height="10" x="-20" y="78" data-date="2022-12-03" data-level="1" rx="2" ry="2">2</rect>
</g>
<g transform="translate(490, 0)">
<rect width="10" height="10" x="-21" y="0" data-date="2022-12-04" data-level="1" rx="2" ry="2">2</rect>
<rect width="10" height="10" x="-21" y="13" data-date="2022-12-05" data-level="0" rx="2" ry="2">No</rect>
<rect width="10" height="10" x="-21" y="26" data-date="2022-12-06" data-level="0" rx="2" ry="2">No</rect>
<rect width="10" height="10" x="-21" y="39" data-date="2022-12-07" data-level="0" rx="2" ry="2">No</rect>
<rect width="10" height="10" x="-21" y="52" data-date="2022-12-08" data-level="0" rx="2" ry="2">No</rect>
<rect width="10" height="10" x="-21" y="65" data-date="2022-12-09" data-level="1" rx="2" ry="2">1</rect>
<rect width="10" height="10" x="-21" y="78" data-date="2022-12-10" data-level="1" rx="2" ry="2">3</rect>
</g>
<g transform="translate(504, 0)">
<rect width="10" height="10" x="-22" y="0" data-date="2022-12-11" data-level="1" rx="2" ry="2">2</rect>
<rect width="10" height="10" x="-22" y="13" data-date="2022-12-12" data-level="1" rx="2" ry="2">2</rect>
<rect width="10" height="10" x="-22" y="26" data-date="2022-12-13" data-level="1" rx="2" ry="2">2</rect>
<rect width="10" height="10" x="-22" y="39" data-date="2022-12-14" data-level="0" rx="2" ry="2">No</rect>
<rect width="10" height="10" x="-22" y="52" data-date="2022-12-15" data-level="2" rx="2" ry="2">4</rect>
<rect width="10" height="10" x="-22" y="65" data-date="2022-12-16" data-level="1" rx="2" ry="2">1</rect>
<rect width="10" height="10" x="-22" y="78" data-date="2022-12-17" data-level="1" rx="2" ry="2">3</rect>
</g>
<g transform="translate(518, 0)">
<rect width="10" height="10" x="-23" y="0" data-date="2022-12-18" data-level="0" rx="2" ry="2">No</rect>
<rect width="10" height="10" x="-23" y="13" data-date="2022-12-19" data-level="4" rx="2" ry="2">11</rect>
<rect width="10" height="10" x="-23" y="26" data-date="2022-12-20" data-level="3" rx="2" ry="2">7</rect>
<rect width="10" height="10" x="-23" y="39" data-date="2022-12-21" data-level="1" rx="2" ry="2">3</rect>
<rect width="10" height="10" x="-23" y="52" data-date="2022-12-22" data-level="0" rx="2" ry="2">No</rect>
<rect width="10" height="10" x="-23" y="65" data-date="2022-12-23" data-level="1" rx="2" ry="2">2</rect>
<rect width="10" height="10" x="-23" y="78" data-date="2022-12-24" data-level="3" rx="2" ry="2">8</rect>
</g>
<g transform="translate(532, 0)">
<rect width="10" height="10" x="-24" y="0" data-date="2022-12-25" data-level="4" rx="2" ry="2">10</rect>
<rect width="10" height="10" x="-24" y="13" data-date="2022-12-26" data-level="0" rx="2" ry="2">No</rect>
<rect width="10" height="10" x="-24" y="26" data-date="2022-12-27" data-level="0" rx="2" ry="2">No</rect>
<rect width="10" height="10" x="-24" y="39" data-date="2022-12-28" data-level="1" rx="2" ry="2">1</rect>
<rect width="10" height="10" x="-24" y="52" data-date="2022-12-29" data-level="0" rx="2" ry="2">No</rect>
<rect width="10" height="10" x="-24" y="65" data-date="2022-12-30" data-level="0" rx="2" ry="2">No</rect>
<rect width="10" height="10" x="-24" y="78" data-date="2022-12-31" data-level="2" rx="2" ry="2">5</rect>
</g>
<g transform="translate(546, 0)">
<rect width="10" height="10" x="-25" y="0" data-date="2023-01-01" data-level="0" rx="2" ry="2">No</rect>
 <rect width="10" height="10" x="-25" y="13" data-date="2023-01-02" data-level="1" rx="2" ry="2">1</rect>
<rect width="10" height="10" x="-25" y="26" data-date="2023-01-03" data-level="0" rx="2" ry="2">No</rect>
<rect width="10" height="10" x="-25" y="39" data-date="2023-01-04" data-level="0" rx="2" ry="2">No</rect>
<rect width="10" height="10" x="-25" y="52" data-date="2023-01-05" data-level="0" rx="2" ry="2">No</rect>
<rect width="10" height="10" x="-25" y="65" data-date="2023-01-06" data-level="0" rx="2" ry="2">No</rect>
<rect width="10" height="10" x="-25" y="78" data-date="2023-01-07" data-level="0" rx="2" ry="2">No</rect>
</g>
<g transform="translate(560, 0)">
<rect width="10" height="10" x="-26" y="0" data-date="2023-01-08" data-level="0" rx="2" ry="2">No</rect>
<rect width="10" height="10" x="-26" y="13" data-date="2023-01-09" data-level="0" rx="2" ry="2">No</rect>
<rect width="10" height="10" x="-26" y="26" data-date="2023-01-10" data-level="0" rx="2" ry="2">No</rect>
<rect width="10" height="10" x="-26" y="39" data-date="2023-01-11" data-level="0" rx="2" ry="2">No</rect>
<rect width="10" height="10" x="-26" y="52" data-date="2023-01-12" data-level="0" rx="2" ry="2">No</rect>
<rect width="10" height="10" x="-26" y="65" data-date="2023-01-13" data-level="0" rx="2" ry="2">No</rect>
<rect width="10" height="10" x="-26" y="78" data-date="2023-01-14" data-level="0" rx="2" ry="2">No</rect>
</g>
<g transform="translate(574, 0)">
<rect width="10" height="10" x="-27" y="0" data-date="2023-01-15" data-level="1" rx="2" ry="2">2</rect>
<rect width="10" height="10" x="-27" y="13" data-date="2023-01-16" data-level="0" rx="2" ry="2">No</rect>
<rect width="10" height="10" x="-27" y="26" data-date="2023-01-17" data-level="4" rx="2" ry="2">10</rect>
<rect width="10" height="10" x="-27" y="39" data-date="2023-01-18" data-level="3" rx="2" ry="2">7</rect>
<rect width="10" height="10" x="-27" y="52" data-date="2023-01-19" data-level="0" rx="2" ry="2">No</rect>
<rect width="10" height="10" x="-27" y="65" data-date="2023-01-20" data-level="1" rx="2" ry="2">1</rect>
<rect width="10" height="10" x="-27" y="78" data-date="2023-01-21" data-level="2" rx="2" ry="2">5</rect>
</g>
<g transform="translate(588, 0)">
<rect width="10" height="10" x="-28" y="0" data-date="2023-01-22" data-level="1" rx="2" ry="2">1</rect>
<rect width="10" height="10" x="-28" y="13" data-date="2023-01-23" data-level="0" rx="2" ry="2">No</rect>
<rect width="10" height="10" x="-28" y="26" data-date="2023-01-24" data-level="1" rx="2" ry="2">1</rect>
<rect width="10" height="10" x="-28" y="39" data-date="2023-01-25" data-level="0" rx="2" ry="2">No</rect>
<rect width="10" height="10" x="-28" y="52" data-date="2023-01-26" data-level="1" rx="2" ry="2">1</rect>
<rect width="10" height="10" x="-28" y="65" data-date="2023-01-27" data-level="0" rx="2" ry="2">No</rect>
<rect width="10" height="10" x="-28" y="78" data-date="2023-01-28" data-level="0" rx="2" ry="2">No</rect>
</g>
<g transform="translate(602, 0)">
<rect width="10" height="10" x="-29" y="0" data-date="2023-01-29" data-level="1" rx="2" ry="2">2</rect>
<rect width="10" height="10" x="-29" y="13" data-date="2023-01-30" data-level="2" rx="2" ry="2">4</rect>
<rect width="10" height="10" x="-29" y="26" data-date="2023-01-31" data-level="1" rx="2" ry="2">1</rect>
<rect width="10" height="10" x="-29" y="39" data-date="2023-02-01" data-level="1" rx="2" ry="2">1</rect>
<rect width="10" height="10" x="-29" y="52" data-date="2023-02-02" data-level="0" rx="2" ry="2">No</rect>
<rect width="10" height="10" x="-29" y="65" data-date="2023-02-03" data-level="0" rx="2" ry="2">No</rect>
<rect width="10" height="10" x="-29" y="78" data-date="2023-02-04" data-level="0" rx="2" ry="2">No</rect>
</g>
<g transform="translate(616, 0)">
<rect width="10" height="10" x="-30" y="0" data-date="2023-02-05" data-level="0" rx="2" ry="2">No</rect>
<rect width="10" height="10" x="-30" y="13" data-date="2023-02-06" data-level="0" rx="2" ry="2">No</rect>
<rect width="10" height="10" x="-30" y="26" data-date="2023-02-07" data-level="0" rx="2" ry="2">No</rect>
<rect width="10" height="10" x="-30" y="39" data-date="2023-02-08" data-level="0" rx="2" ry="2">No</rect>
<rect width="10" height="10" x="-30" y="52" data-date="2023-02-09" data-level="0" rx="2" ry="2">No</rect>
<rect width="10" height="10" x="-30" y="65" data-date="2023-02-10" data-level="4" rx="2" ry="2">10</rect>
<rect width="10" height="10" x="-30" y="78" data-date="2023-02-11" data-level="0" rx="2" ry="2">No</rect>
</g>
<g transform="translate(630, 0)">
<rect width="10" height="10" x="-31" y="0" data-date="2023-02-12" data-level="3" rx="2" ry="2">8</rect>
<rect width="10" height="10" x="-31" y="13" data-date="2023-02-13" data-level="0" rx="2" ry="2">No</rect>
<rect width="10" height="10" x="-31" y="26" data-date="2023-02-14" data-level="0" rx="2" ry="2">No</rect>
<rect width="10" height="10" x="-31" y="39" data-date="2023-02-15" data-level="0" rx="2" ry="2">No</rect>
<rect width="10" height="10" x="-31" y="52" data-date="2023-02-16" data-level="0" rx="2" ry="2">No</rect>
<rect width="10" height="10" x="-31" y="65" data-date="2023-02-17" data-level="0" rx="2" ry="2">No</rect>
<rect width="10" height="10" x="-31" y="78" data-date="2023-02-18" data-level="1" rx="2" ry="2">2</rect>
</g>
<g transform="translate(644, 0)">
<rect width="10" height="10" x="-32" y="0" data-date="2023-02-19" data-level="1" rx="2" ry="2">2</rect>
<rect width="10" height="10" x="-32" y="13" data-date="2023-02-20" data-level="0" rx="2" ry="2">No</rect>
<rect width="10" height="10" x="-32" y="26" data-date="2023-02-21" data-level="0" rx="2" ry="2">No</rect>
<rect width="10" height="10" x="-32" y="39" data-date="2023-02-22" data-level="0" rx="2" ry="2">No</rect>
<rect width="10" height="10" x="-32" y="52" data-date="2023-02-23" data-level="0" rx="2" ry="2">No</rect>
<rect width="10" height="10" x="-32" y="65" data-date="2023-02-24" data-level="0" rx="2" ry="2">No</rect>
<rect width="10" height="10" x="-32" y="78" data-date="2023-02-25" data-level="0" rx="2" ry="2">No</rect>
</g>
<g transform="translate(658, 0)">
<rect width="10" height="10" x="-33" y="0" data-date="2023-02-26" data-level="0" rx="2" ry="2">No</rect>
<rect width="10" height="10" x="-33" y="13" data-date="2023-02-27" data-level="0" rx="2" ry="2">No</rect>
<rect width="10" height="10" x="-33" y="26" data-date="2023-02-28" data-level="0" rx="2" ry="2">No</rect>
<rect width="10" height="10" x="-33" y="39" data-date="2023-03-01" data-level="0" rx="2" ry="2">No</rect>
<rect width="10" height="10" x="-33" y="52" data-date="2023-03-02" data-level="0" rx="2" ry="2">No</rect>
<rect width="10" height="10" x="-33" y="65" data-date="2023-03-03" data-level="0" rx="2" ry="2">No</rect>
<rect width="10" height="10" x="-33" y="78" data-date="2023-03-04" data-level="0" rx="2" ry="2">No</rect>
</g>
<g transform="translate(672, 0)">
<rect width="10" height="10" x="-34" y="0" data-date="2023-03-05" data-level="0" rx="2" ry="2">No</rect>
<rect width="10" height="10" x="-34" y="13" data-date="2023-03-06" data-level="1" rx="2" ry="2">2</rect>
<rect width="10" height="10" x="-34" y="26" data-date="2023-03-07" data-level="0" rx="2" ry="2">No</rect>
<rect width="10" height="10" x="-34" y="39" data-date="2023-03-08" data-level="0" rx="2" ry="2">No</rect>
<rect width="10" height="10" x="-34" y="52" data-date="2023-03-09" data-level="1" rx="2" ry="2">1</rect>
<rect width="10" height="10" x="-34" y="65" data-date="2023-03-10" data-level="1" rx="2" ry="2">3</rect>
<rect width="10" height="10" x="-34" y="78" data-date="2023-03-11" data-level="2" rx="2" ry="2">4</rect>
</g>
<g transform="translate(686, 0)">
<rect width="10" height="10" x="-35" y="0" data-date="2023-03-12" data-level="2" rx="2" ry="2">6</rect>
<rect width="10" height="10" x="-35" y="13" data-date="2023-03-13" data-level="0" rx="2" ry="2">No</rect>
<rect width="10" height="10" x="-35" y="26" data-date="2023-03-14" data-level="1" rx="2" ry="2">2</rect>
<rect width="10" height="10" x="-35" y="39" data-date="2023-03-15" data-level="1" rx="2" ry="2">2</rect>
<rect width="10" height="10" x="-35" y="52" data-date="2023-03-16" data-level="1" rx="2" ry="2">3</rect>
<rect width="10" height="10" x="-35" y="65" data-date="2023-03-17" data-level="0" rx="2" ry="2">No</rect>
<rect width="10" height="10" x="-35" y="78" data-date="2023-03-18" data-level="2" rx="2" ry="2">6</rect>
</g>
<g transform="translate(700, 0)">
<rect width="10" height="10" x="-36" y="0" data-date="2023-03-19" data-level="2" rx="2" ry="2">5</rect>
<rect width="10" height="10" x="-36" y="13" data-date="2023-03-20" data-level="0" rx="2" ry="2">No</rect>
<rect width="10" height="10" x="-36" y="26" data-date="2023-03-21" data-level="0" rx="2" ry="2">No</rect>
<rect width="10" height="10" x="-36" y="39" data-date="2023-03-22" data-level="2" rx="2" ry="2">4</rect>
<rect width="10" height="10" x="-36" y="52" data-date="2023-03-23" data-level="2" rx="2" ry="2">6</rect>
<rect width="10" height="10" x="-36" y="65" data-date="2023-03-24" data-level="0" rx="2" ry="2">No</rect>
<rect width="10" height="10" x="-36" y="78" data-date="2023-03-25" data-level="1" rx="2" ry="2">2</rect>
</g>
<g transform="translate(714, 0)">
<rect width="10" height="10" x="-37" y="0" data-date="2023-03-26" data-level="0" rx="2" ry="2">No</rect>
<rect width="10" height="10" x="-37" y="13" data-date="2023-03-27" data-level="0" rx="2" ry="2">No</rect>
<rect width="10" height="10" x="-37" y="26" data-date="2023-03-28" data-level="2" rx="2" ry="2">5</rect>
<rect width="10" height="10" x="-37" y="39" data-date="2023-03-29" data-level="2" rx="2" ry="2">4</rect>
<rect width="10" height="10" x="-37" y="52" data-date="2023-03-30" data-level="0" rx="2" ry="2">No</rect>
<rect width="10" height="10" x="-37" y="65" data-date="2023-03-31" data-level="1" rx="2" ry="2">2</rect>
<rect width="10" height="10" x="-37" y="78" data-date="2023-04-01" data-level="2" rx="2" ry="2">5</rect>
</g>
<g transform="translate(728, 0)">
<rect width="10" height="10" x="-38" y="0" data-date="2023-04-02" data-level="2" rx="2" ry="2">4</rect>
<rect width="10" height="10" x="-38" y="13" data-date="2023-04-03" data-level="0" rx="2" ry="2">No</rect>
<rect width="10" height="10" x="-38" y="26" data-date="2023-04-04" data-level="1" rx="2" ry="2">3</rect>
<rect width="10" height="10" x="-38" y="39" data-date="2023-04-05" data-level="1" rx="2" ry="2">2</rect>
</g>
<text x="14" y="-7">Apr</text>
<text x="66" y="-7">May</text>
<text x="131" y="-7">Jun</text>
<text x="183" y="-7">Jul</text>
<text x="248" y="-7">Aug</text>
<text x="300" y="-7">Sep</text>
<text x="352" y="-7">Oct</text>
<text x="417" y="-7">Nov</text>
<text x="469" y="-7">Dec</text>
<text x="521" y="-7">Jan</text>
<text x="586" y="-7">Feb</text>
<text x="638" y="-7">Mar</text>
<text dx="-15" dy="8" style="display: none;">Sun</text>
<text dx="-15" dy="22">Mon</text>
<text dx="-15" dy="32" style="display: none;">Tue</text>
<text dx="-15" dy="48">Wed</text>
<text dx="-15" dy="57" style="display: none;">Thu</text>
<text dx="-15" dy="73">Fri</text>
<text dx="-15" dy="81" style="display: none;">Sat</text>
</g> <text class="desc" transform="translate(0, 157)" text-anchor="start">
            Total 607 Contributions |
            By kobe-koto/Github-Contributions-API |
            Gen at Wed, 05 Apr 2023 04:38:53 GMT
        </text><g transform="translate(656, 148)">
            <rect width="10" height="10" rx="2" ry="2" x="00" y="0" data-level="0"></rect>
            <rect width="10" height="10" rx="2" ry="2" x="12" y="0" data-level="1"></rect>
            <rect width="10" height="10" rx="2" ry="2" x="24" y="0" data-level="2"></rect>
            <rect width="10" height="10" rx="2" ry="2" x="36" y="0" data-level="3"></rect>
            <rect width="10" height="10" rx="2" ry="2" x="48" y="0" data-level="4"></rect>
        </g><style>
            svg {
                background-color: #0d1117;
                border-radius: 8px;
                padding: 16px 20px;
            }
            text {
                font-size: 12px;
                font-weight: 400;
                font-family: sans-serif;
                color: #e6edf3;
                fill: #e6edf3;
            }
            text.title {
                font-size: larger;
                font-weight: 600;
            }
            text.desc {
                font-size: normal;
            }
            rect[data-level="0"] {
                fill: #161b22;
            }
            rect[data-level="1"] {
                fill: #0e4429;
            }
            rect[data-level="2"] {
                fill: #006d32;
            }
            rect[data-level="3"] {
                fill: #26a641;
            }
            rect[data-level="4"] {
                fill: #39d353;
            }
        </style></svg>
